<svg width="112" height="33" viewBox="0 0 112 33" fill="none" xmlns="http://www.w3.org/2000/svg">
<path d="M17.895 22V11.35H18.66V21.31H25.02V22H17.895ZM29.4664 22.15C28.9164 22.15 28.4064 22.045 27.9364 21.835C27.4664 21.615 27.0564 21.32 26.7064 20.95C26.3664 20.57 26.0964 20.135 25.8964 19.645C25.7064 19.145 25.6114 18.62 25.6114 18.07C25.6114 17.33 25.7764 16.66 26.1064 16.06C26.4364 15.46 26.8914 14.98 27.4714 14.62C28.0514 14.25 28.7014 14.065 29.4214 14.065C30.1614 14.065 30.8164 14.25 31.3864 14.62C31.9564 14.99 32.4064 15.48 32.7364 16.09C33.0764 16.69 33.2464 17.35 33.2464 18.07C33.2464 18.13 33.2464 18.19 33.2464 18.25C33.2464 18.31 33.2414 18.36 33.2314 18.4H26.3914C26.4314 18.99 26.5964 19.525 26.8864 20.005C27.1764 20.485 27.5464 20.865 27.9964 21.145C28.4564 21.415 28.9564 21.55 29.4964 21.55C30.0364 21.55 30.5464 21.41 31.0264 21.13C31.5064 20.85 31.8414 20.49 32.0314 20.05L32.6914 20.23C32.5414 20.6 32.3014 20.93 31.9714 21.22C31.6514 21.51 31.2714 21.74 30.8314 21.91C30.4014 22.07 29.9464 22.15 29.4664 22.15ZM26.3614 17.815H32.5264C32.4864 17.205 32.3264 16.665 32.0464 16.195C31.7664 15.725 31.3964 15.355 30.9364 15.085C30.4864 14.815 29.9864 14.68 29.4364 14.68C28.8864 14.68 28.3864 14.815 27.9364 15.085C27.4864 15.355 27.1214 15.725 26.8414 16.195C26.5614 16.665 26.4014 17.205 26.3614 17.815ZM34.2516 19.75C34.2516 19.28 34.3916 18.875 34.6716 18.535C34.9516 18.185 35.3366 17.915 35.8266 17.725C36.3166 17.525 36.8816 17.425 37.5216 17.425C37.9216 17.425 38.3366 17.46 38.7666 17.53C39.1966 17.6 39.5816 17.695 39.9216 17.815V17.08C39.9216 16.36 39.7116 15.785 39.2916 15.355C38.8816 14.925 38.3116 14.71 37.5816 14.71C37.1916 14.71 36.7866 14.79 36.3666 14.95C35.9466 15.11 35.5166 15.34 35.0766 15.64L34.7616 15.1C35.2716 14.76 35.7616 14.505 36.2316 14.335C36.7116 14.155 37.1866 14.065 37.6566 14.065C38.5866 14.065 39.3216 14.34 39.8616 14.89C40.4016 15.44 40.6716 16.19 40.6716 17.14V21.01C40.6716 21.13 40.6966 21.22 40.7466 21.28C40.8066 21.34 40.8916 21.375 41.0016 21.385V22C40.9116 22.01 40.8366 22.015 40.7766 22.015C40.7166 22.015 40.6666 22.015 40.6266 22.015C40.4366 21.985 40.2866 21.905 40.1766 21.775C40.0766 21.645 40.0216 21.5 40.0116 21.34V20.725C39.6516 21.175 39.1866 21.525 38.6166 21.775C38.0566 22.025 37.4666 22.15 36.8466 22.15C36.3566 22.15 35.9116 22.045 35.5116 21.835C35.1216 21.625 34.8116 21.34 34.5816 20.98C34.3616 20.61 34.2516 20.2 34.2516 19.75ZM39.6216 20.395C39.7216 20.265 39.7966 20.14 39.8466 20.02C39.8966 19.9 39.9216 19.79 39.9216 19.69V18.4C39.5616 18.26 39.1866 18.155 38.7966 18.085C38.4066 18.015 38.0066 17.98 37.5966 17.98C36.8166 17.98 36.1816 18.135 35.6916 18.445C35.2116 18.755 34.9716 19.175 34.9716 19.705C34.9716 20.035 35.0566 20.34 35.2266 20.62C35.3966 20.9 35.6316 21.125 35.9316 21.295C36.2416 21.465 36.5966 21.55 36.9966 21.55C37.5566 21.55 38.0716 21.445 38.5416 21.235C39.0216 21.015 39.3816 20.735 39.6216 20.395ZM46.6432 14.875C45.9432 14.895 45.3282 15.105 44.7982 15.505C44.2782 15.895 43.9132 16.435 43.7032 17.125V22H42.9532V14.2H43.6732V16.12C43.9432 15.57 44.3032 15.125 44.7532 14.785C45.2032 14.435 45.6782 14.235 46.1782 14.185C46.2782 14.175 46.3682 14.17 46.4482 14.17C46.5282 14.17 46.5932 14.17 46.6432 14.17V14.875ZM54.4405 22H53.6905V17.65C53.6905 16.65 53.5455 15.92 53.2555 15.46C52.9755 14.99 52.5255 14.755 51.9055 14.755C51.4655 14.755 51.0305 14.86 50.6005 15.07C50.1805 15.28 49.8105 15.57 49.4905 15.94C49.1805 16.3 48.9555 16.71 48.8155 17.17V22H48.0655V14.2H48.7705V16.06C48.9805 15.66 49.2605 15.315 49.6105 15.025C49.9605 14.725 50.3505 14.49 50.7805 14.32C51.2105 14.15 51.6555 14.065 52.1155 14.065C52.5455 14.065 52.9055 14.145 53.1955 14.305C53.4955 14.455 53.7355 14.675 53.9155 14.965C54.1055 15.255 54.2405 15.615 54.3205 16.045C54.4005 16.475 54.4405 16.965 54.4405 17.515V22ZM70.4306 22V12.835L66.2456 20.005H65.7356L61.5506 12.835V22H60.7856V11.35H61.5506L65.9906 18.97L70.4306 11.35H71.1956V22H70.4306ZM76.9117 22.15C76.3617 22.15 75.8517 22.045 75.3817 21.835C74.9217 21.625 74.5217 21.335 74.1817 20.965C73.8417 20.585 73.5767 20.15 73.3867 19.66C73.1967 19.17 73.1017 18.655 73.1017 18.115C73.1017 17.565 73.1967 17.05 73.3867 16.57C73.5767 16.08 73.8417 15.65 74.1817 15.28C74.5317 14.9 74.9367 14.605 75.3967 14.395C75.8667 14.175 76.3717 14.065 76.9117 14.065C77.4517 14.065 77.9517 14.175 78.4117 14.395C78.8717 14.605 79.2767 14.9 79.6267 15.28C79.9767 15.65 80.2467 16.08 80.4367 16.57C80.6267 17.05 80.7217 17.565 80.7217 18.115C80.7217 18.655 80.6267 19.17 80.4367 19.66C80.2467 20.15 79.9767 20.585 79.6267 20.965C79.2867 21.335 78.8817 21.625 78.4117 21.835C77.9517 22.045 77.4517 22.15 76.9117 22.15ZM73.8517 18.145C73.8517 18.755 73.9867 19.315 74.2567 19.825C74.5367 20.325 74.9067 20.725 75.3667 21.025C75.8267 21.325 76.3367 21.475 76.8967 21.475C77.4567 21.475 77.9667 21.325 78.4267 21.025C78.8967 20.715 79.2667 20.305 79.5367 19.795C79.8167 19.275 79.9567 18.71 79.9567 18.1C79.9567 17.49 79.8167 16.93 79.5367 16.42C79.2667 15.91 78.8967 15.505 78.4267 15.205C77.9667 14.895 77.4617 14.74 76.9117 14.74C76.3517 14.74 75.8417 14.895 75.3817 15.205C74.9217 15.515 74.5517 15.925 74.2717 16.435C73.9917 16.945 73.8517 17.515 73.8517 18.145ZM86.2086 14.875C85.5086 14.895 84.8936 15.105 84.3636 15.505C83.8436 15.895 83.4786 16.435 83.2686 17.125V22H82.5186V14.2H83.2386V16.12C83.5086 15.57 83.8686 15.125 84.3186 14.785C84.7686 14.435 85.2436 14.235 85.7436 14.185C85.8436 14.175 85.9336 14.17 86.0136 14.17C86.0936 14.17 86.1586 14.17 86.2086 14.17V14.875ZM90.6383 22.15C90.0883 22.15 89.5783 22.045 89.1083 21.835C88.6383 21.615 88.2283 21.32 87.8783 20.95C87.5383 20.57 87.2683 20.135 87.0683 19.645C86.8783 19.145 86.7833 18.62 86.7833 18.07C86.7833 17.33 86.9483 16.66 87.2783 16.06C87.6083 15.46 88.0633 14.98 88.6433 14.62C89.2233 14.25 89.8733 14.065 90.5933 14.065C91.3333 14.065 91.9883 14.25 92.5583 14.62C93.1283 14.99 93.5783 15.48 93.9083 16.09C94.2483 16.69 94.4183 17.35 94.4183 18.07C94.4183 18.13 94.4183 18.19 94.4183 18.25C94.4183 18.31 94.4133 18.36 94.4033 18.4H87.5633C87.6033 18.99 87.7683 19.525 88.0583 20.005C88.3483 20.485 88.7183 20.865 89.1683 21.145C89.6283 21.415 90.1283 21.55 90.6683 21.55C91.2083 21.55 91.7183 21.41 92.1983 21.13C92.6783 20.85 93.0133 20.49 93.2033 20.05L93.8633 20.23C93.7133 20.6 93.4733 20.93 93.1433 21.22C92.8233 21.51 92.4433 21.74 92.0033 21.91C91.5733 22.07 91.1183 22.15 90.6383 22.15ZM87.5333 17.815H93.6983C93.6583 17.205 93.4983 16.665 93.2183 16.195C92.9383 15.725 92.5683 15.355 92.1083 15.085C91.6583 14.815 91.1583 14.68 90.6083 14.68C90.0583 14.68 89.5583 14.815 89.1083 15.085C88.6583 15.355 88.2933 15.725 88.0133 16.195C87.7333 16.665 87.5733 17.205 87.5333 17.815Z" fill="#F9B860"/>
<rect x="1" y="0.5" width="110" height="32" stroke="#F9B860"/>
</svg>
