<svg width="40" height="40" viewBox="0 0 40 40" fill="none" xmlns="http://www.w3.org/2000/svg">
<g clip-path="url(#clip0_32_273)">
<mask id="mask0_32_273" style="mask-type:luminance" maskUnits="userSpaceOnUse" x="-1" y="0" width="41" height="40">
<path d="M39.9976 0H-0.00238037V40H39.9976V0Z" fill="white"/>
</mask>
<g mask="url(#mask0_32_273)">
<path d="M16.9761 8.04228C12.3716 11.0678 8.1991 16.8303 7.76702 21.4407C7.9112 21.4407 8.91793 21.2965 9.63722 21.2965C13.6664 21.2965 16.5441 24.3211 16.5441 28.6431C16.5502 29.6467 16.3572 30.6416 15.9762 31.5702C15.5953 32.4987 15.0339 33.3425 14.3247 34.0526C13.6154 34.7628 12.7724 35.3252 11.8443 35.7073C10.9162 36.0894 9.92158 36.2836 8.91793 36.2788C4.17011 36.2788 -0.00238037 32.3888 -0.00238037 25.3299C-0.00238037 16.5419 5.03335 8.47506 11.6523 3.72119L16.9761 8.04228ZM39.9976 8.04228C35.393 11.0678 31.3645 16.8303 30.7885 21.4407C30.9317 21.4407 31.9391 21.2965 32.6587 21.2965C36.687 21.2965 39.7088 24.3211 39.7088 28.6431C39.7088 32.8207 36.2558 36.2788 31.9391 36.2788C27.1913 36.2788 23.0188 32.3888 23.0188 25.3299C23.0188 16.5419 28.0541 8.47506 34.6728 3.72119L39.9976 8.04228Z" fill="#F9B860"/>
</g>
</g>
<defs>
<clipPath id="clip0_32_273">
<rect width="40" height="40" fill="white" transform="translate(-0.00238037)"/>
</clipPath>
</defs>
</svg>
